<?xml version="1.0" encoding="UTF-8" standalone="no"?>
<!DOCTYPE svg PUBLIC "-//W3C//DTD SVG 1.1//EN" "http://www.w3.org/Graphics/SVG/1.1/DTD/svg11.dtd">
<svg width="100%" height="100%" viewBox="0 0 5000 5000" version="1.1" xmlns="http://www.w3.org/2000/svg" xmlns:xlink="http://www.w3.org/1999/xlink" xml:space="preserve" style="fill-rule:evenodd;clip-rule:evenodd;stroke-linecap:round;stroke-linejoin:round;stroke-miterlimit:1.41421;">
    <g transform="matrix(1,0,0,1,735,-380)">
        <rect x="-1840" y="-1279" width="7305" height="7564" style="fill:black;"/>
    </g>
    <g transform="matrix(0.804989,0,0,0.804989,24.9557,293.236)">
        <g transform="matrix(1,0,0,1,-490,889)">
            <ellipse cx="2186.5" cy="2076" rx="13.5" ry="19" style="fill:none;stroke-width:5.18px;stroke:rgb(255,204,0);"/>
        </g>
        <g transform="matrix(1,0,0,1,-490,889)">
            <path d="M939,2941C929.716,2988.1 921.894,3035.43 946,3088C1071.44,3204.48 1122.5,3293.98 983,3460C1004.29,3593.81 1020.53,3726.86 1024,3858L1090,3895L1104,3965L1225,3974L1207,3906L1152,3866C1117.76,3768.68 1090.64,3667.88 1078,3560C1103.45,3493.23 1130.55,3467.66 1158,3451L1160,3567L1405,3926C1426.37,3934.22 1446.5,3944.83 1456,3976L1462,4010L1607,4014L1585,3961C1555.8,3959.34 1531.17,3940.72 1509,3913C1401.29,3793.47 1318.13,3663.43 1278,3515C1369.06,3385.19 1402.37,3240.39 1418,3091C1804.86,3061.11 1967.89,2962.84 2008,2827C2065.66,2858.87 2214,2821.24 2238.75,2814.6C2342.28,2786.84 2404.21,2828.62 2441,2848C2432.03,2912.74 2428.63,2983.43 2367,2992L2321,3101L2441,3033L2531,2925L2570,3038L2616,3034L2642,3070L2630,3091L2736,3143L2729,3071L2488,2767L2338,2696C2287.41,2682.97 2240.21,2665.49 2206,2631L2206,2599C2199.46,2502.89 2129.97,2393.45 2051,2282C2013.1,2195.66 2036.71,2185.22 2054,2167L2104,2241L2134,2283C2142.14,2334.29 2152,2381.87 2184,2382C2202.84,2405.13 2221.48,2404.13 2240,2388L2290,2343L2300,2052C2280.15,2033.49 2266.12,2011.08 2268,1978C2259.36,1937.58 2273.42,1904.7 2300,1876C2270.1,1883.67 2243.6,1895.3 2224,1915C2218.53,1872.22 2231.77,1848.12 2249,1828C2211.05,1835.66 2176.28,1847.49 2168,1894C2160.7,1852.28 2121.58,1835.12 2063,1833C2109.54,1854.99 2121.01,1871.34 2097,1882C2068.66,1849.29 2034.5,1831.53 1994,1830C2029.42,1846.4 2046.44,1863.7 2023,1883C1996.94,1853.3 1946.59,1845.17 1876,1855C1931.91,1860.9 1972.93,1871.93 1976,1896C1894.37,1885.69 1822.38,1890.1 1773,1929C1866.21,1906.41 1916.52,1908.55 1942,1925C1858.91,1932.66 1778.16,1956.08 1703,2017C1751.56,1998.84 1787.95,1993.73 1796,2019C1718.48,2038.61 1655.15,2078.28 1606,2138C1688.95,2086.77 1748.47,2063.11 1765,2090L1701,2216C1658.72,2258.4 1629.1,2349.71 1607,2470C1564.2,2556.14 1504.7,2635.38 1325,2665C1153.5,2684.7 1013.21,2720.8 974,2810" style="fill:none;stroke-width:15.53px;stroke:rgb(111,63,245);"/>
        </g>
        <g transform="matrix(0.991296,0,0,1,-480.886,888)">
            <clipPath id="_clip1">
                <ellipse cx="1679" cy="1777" rx="517" ry="387"/>
            </clipPath>
            <g clip-path="url(#_clip1)">
                <g transform="matrix(1.00878,0,0,1,-14.238,1)">
                    <path d="M939,2941C929.716,2988.1 921.894,3035.43 946,3088C1071.44,3204.48 1122.5,3293.98 983,3460C1004.29,3593.81 1020.53,3726.86 1024,3858L1090,3895L1104,3965L1225,3974L1207,3906L1152,3866C1117.76,3768.68 1090.64,3667.88 1078,3560C1103.45,3493.23 1130.55,3467.66 1158,3451L1160,3567L1405,3926C1426.37,3934.22 1446.5,3944.83 1456,3976L1462,4010L1607,4014L1585,3961C1555.8,3959.34 1531.17,3940.72 1509,3913C1401.29,3793.47 1318.13,3663.43 1278,3515C1369.06,3385.19 1402.37,3240.39 1418,3091C1804.86,3061.11 1967.89,2962.84 2008,2827C2065.66,2858.87 2214,2821.24 2238.75,2814.6C2342.28,2786.84 2404.21,2828.62 2441,2848C2432.03,2912.74 2428.63,2983.43 2367,2992L2321,3101L2441,3033L2531,2925L2570,3038L2616,3034L2642,3070L2630,3091L2736,3143L2729,3071L2488,2767L2338,2696C2287.41,2682.97 2240.21,2665.49 2206,2631L2206,2599C2199.46,2502.89 2129.97,2393.45 2051,2282C2013.1,2195.66 2036.71,2185.22 2054,2167L2104,2241L2134,2283C2142.14,2334.29 2152,2381.87 2184,2382C2202.84,2405.13 2221.48,2404.13 2240,2388L2290,2343L2300,2052C2280.15,2033.49 2266.12,2011.08 2268,1978C2259.36,1937.58 2273.42,1904.7 2300,1876C2270.1,1883.67 2243.6,1895.3 2224,1915C2218.53,1872.22 2231.77,1848.12 2249,1828C2211.05,1835.66 2176.28,1847.49 2168,1894C2160.7,1852.28 2121.58,1835.12 2063,1833C2109.54,1854.99 2121.01,1871.34 2097,1882C2068.66,1849.29 2034.5,1831.53 1994,1830C2029.42,1846.4 2046.44,1863.7 2023,1883C1996.94,1853.3 1946.59,1845.17 1876,1855C1931.91,1860.9 1972.93,1871.93 1976,1896C1894.37,1885.69 1822.38,1890.1 1773,1929C1866.21,1906.41 1916.52,1908.55 1942,1925C1858.91,1932.66 1778.16,1956.08 1703,2017C1751.56,1998.84 1787.95,1993.73 1796,2019C1718.48,2038.61 1655.15,2078.28 1606,2138C1688.95,2086.77 1748.47,2063.11 1765,2090L1701,2216C1658.72,2258.4 1629.1,2349.71 1607,2470C1564.2,2556.14 1504.7,2635.38 1325,2665C1153.5,2684.7 1013.21,2720.8 974,2810" style="fill:none;stroke-width:20.7px;stroke:rgb(2,226,172);"/>
                </g>
            </g>
        </g>
        <g transform="matrix(1,0,0,1,-490,889)">
            <path d="M938,2938L973,2810C888.215,2840.88 810.442,2885.18 746,2955C635.811,3164.64 633.611,3282.88 641,3393L661,3381C619.562,3568.56 643.41,3592.68 652,3655L686,3609C676.494,3716.67 688.791,3766.48 711,3790L734,3733C754.557,3804.95 755.907,3869.8 742,3929L808,3818C829.868,3853.53 831.999,3900.44 807,3963L829,4035C915.25,3912.92 899.196,3782.51 845,3649L903,3700C899.031,3608.44 880.711,3520.43 848,3436L906,3505C894.149,3446.98 883.34,3390.09 900,3363C919.879,3306.63 920.003,3256.8 917,3208L898,3099C884.566,3016.5 902.605,2967.9 938,2938Z" style="fill:none;stroke-width:5.18px;stroke:rgb(2,226,172);"/>
        </g>
        <g transform="matrix(1,0,0,1,-494,889)">
            <path d="M938,2938L973,2810C888.215,2840.88 810.442,2885.18 746,2955C635.811,3164.64 633.611,3282.88 641,3393L661,3381C619.562,3568.56 643.41,3592.68 652,3655L686,3609C676.494,3716.67 688.791,3766.48 711,3790L734,3733C754.557,3804.95 755.907,3869.8 742,3929L808,3818C829.868,3853.53 831.999,3900.44 807,3963L829,4035C915.25,3912.92 899.196,3782.51 845,3649L903,3700C899.031,3608.44 880.711,3520.43 848,3436L906,3505C894.149,3446.98 883.34,3390.09 900,3363C919.879,3306.63 920.003,3256.8 917,3208L898,3099C884.566,3016.5 902.605,2967.9 938,2938Z" style="fill:none;stroke-width:15.53px;stroke:rgb(2,226,172);"/>
        </g>
        <g transform="matrix(1.01626,0,0,0.933333,-508.886,1156.67)">
            <path d="M1100,3940L1216,3940L1223,3970C1182.64,3967.99 1143.56,3965.36 1106,3962L1100,3940Z" style="fill:none;stroke-width:15.92px;stroke:rgb(255,204,0);"/>
        </g>
        <g transform="matrix(1,0,0,1,-493,892)">
            <path d="M2325,3095L2368,2992L2388,2987L2362,3076L2325,3095Z" style="fill:none;stroke-width:15.53px;stroke:rgb(255,204,0);"/>
        </g>
        <g transform="matrix(1,0,0,1,-490,892)">
            <path d="M2643,3071L2732,3107L2735,3139L2631,3089L2643,3071Z" style="fill:none;stroke-width:15.53px;stroke:rgb(255,204,0);"/>
        </g>
        <g transform="matrix(1,0,0,1,-489,891)">
            <path d="M1458,3975L1463,4008C1535.3,4012.72 1576.57,4013.29 1604,4012L1584,3963L1458,3975Z" style="fill:none;stroke-width:15.53px;stroke:rgb(255,204,0);"/>
        </g>
    </g>
    <g transform="matrix(-0.804989,0,0,0.804989,5051.36,293.236)">
        <g transform="matrix(1,0,0,1,-490,889)">
            <ellipse cx="2186.5" cy="2076" rx="13.5" ry="19" style="fill:none;stroke-width:5.18px;stroke:rgb(255,204,0);"/>
        </g>
        <g transform="matrix(1,0,0,1,-490,889)">
            <path d="M939,2941C929.716,2988.1 921.894,3035.43 946,3088C1071.44,3204.48 1122.5,3293.98 983,3460C1004.29,3593.81 1020.53,3726.86 1024,3858L1090,3895L1104,3965L1225,3974L1207,3906L1152,3866C1117.76,3768.68 1090.64,3667.88 1078,3560C1103.45,3493.23 1130.55,3467.66 1158,3451L1160,3567L1405,3926C1426.37,3934.22 1446.5,3944.83 1456,3976L1462,4010L1607,4014L1585,3961C1555.8,3959.34 1531.17,3940.72 1509,3913C1401.29,3793.47 1318.13,3663.43 1278,3515C1369.06,3385.19 1402.37,3240.39 1418,3091C1804.86,3061.11 1967.89,2962.84 2008,2827C2065.66,2858.87 2214,2821.24 2238.75,2814.6C2342.28,2786.84 2404.21,2828.62 2441,2848C2432.03,2912.74 2428.63,2983.43 2367,2992L2321,3101L2441,3033L2531,2925L2570,3038L2616,3034L2642,3070L2630,3091L2736,3143L2729,3071L2488,2767L2338,2696C2287.41,2682.97 2240.21,2665.49 2206,2631L2206,2599C2199.46,2502.89 2129.97,2393.45 2051,2282C2013.1,2195.66 2036.71,2185.22 2054,2167L2104,2241L2134,2283C2142.14,2334.29 2152,2381.87 2184,2382C2202.84,2405.13 2221.48,2404.13 2240,2388L2290,2343L2300,2052C2280.15,2033.49 2266.12,2011.08 2268,1978C2259.36,1937.58 2273.42,1904.7 2300,1876C2270.1,1883.67 2243.6,1895.3 2224,1915C2218.53,1872.22 2231.77,1848.12 2249,1828C2211.05,1835.66 2176.28,1847.49 2168,1894C2160.7,1852.28 2121.58,1835.12 2063,1833C2109.54,1854.99 2121.01,1871.34 2097,1882C2068.66,1849.29 2034.5,1831.53 1994,1830C2029.42,1846.4 2046.44,1863.7 2023,1883C1996.94,1853.3 1946.59,1845.17 1876,1855C1931.91,1860.9 1972.93,1871.93 1976,1896C1894.37,1885.69 1822.38,1890.1 1773,1929C1866.21,1906.41 1916.52,1908.55 1942,1925C1858.91,1932.66 1778.16,1956.08 1703,2017C1751.56,1998.84 1787.95,1993.73 1796,2019C1718.48,2038.61 1655.15,2078.28 1606,2138C1688.95,2086.77 1748.47,2063.11 1765,2090L1701,2216C1658.72,2258.4 1629.1,2349.71 1607,2470C1564.2,2556.14 1504.7,2635.38 1325,2665C1153.5,2684.7 1013.21,2720.8 974,2810" style="fill:none;stroke-width:15.53px;stroke:rgb(111,63,245);"/>
        </g>
        <g transform="matrix(0.991296,0,0,1,-480.886,888)">
            <clipPath id="_clip2">
                <ellipse cx="1679" cy="1777" rx="517" ry="387"/>
            </clipPath>
            <g clip-path="url(#_clip2)">
                <g transform="matrix(1.00878,0,0,1,-14.238,1)">
                    <path d="M939,2941C929.716,2988.1 921.894,3035.43 946,3088C1071.44,3204.48 1122.5,3293.98 983,3460C1004.29,3593.81 1020.53,3726.86 1024,3858L1090,3895L1104,3965L1225,3974L1207,3906L1152,3866C1117.76,3768.68 1090.64,3667.88 1078,3560C1103.45,3493.23 1130.55,3467.66 1158,3451L1160,3567L1405,3926C1426.37,3934.22 1446.5,3944.83 1456,3976L1462,4010L1607,4014L1585,3961C1555.8,3959.34 1531.17,3940.72 1509,3913C1401.29,3793.47 1318.13,3663.43 1278,3515C1369.06,3385.19 1402.37,3240.39 1418,3091C1804.86,3061.11 1967.89,2962.84 2008,2827C2065.66,2858.87 2214,2821.24 2238.75,2814.6C2342.28,2786.84 2404.21,2828.62 2441,2848C2432.03,2912.74 2428.63,2983.43 2367,2992L2321,3101L2441,3033L2531,2925L2570,3038L2616,3034L2642,3070L2630,3091L2736,3143L2729,3071L2488,2767L2338,2696C2287.41,2682.97 2240.21,2665.49 2206,2631L2206,2599C2199.46,2502.89 2129.97,2393.45 2051,2282C2013.1,2195.66 2036.71,2185.22 2054,2167L2104,2241L2134,2283C2142.14,2334.29 2152,2381.87 2184,2382C2202.84,2405.13 2221.48,2404.13 2240,2388L2290,2343L2300,2052C2280.15,2033.49 2266.12,2011.08 2268,1978C2259.36,1937.58 2273.42,1904.7 2300,1876C2270.1,1883.67 2243.6,1895.3 2224,1915C2218.53,1872.22 2231.77,1848.12 2249,1828C2211.05,1835.66 2176.28,1847.49 2168,1894C2160.7,1852.28 2121.58,1835.12 2063,1833C2109.54,1854.99 2121.01,1871.34 2097,1882C2068.66,1849.29 2034.5,1831.53 1994,1830C2029.42,1846.4 2046.44,1863.7 2023,1883C1996.94,1853.3 1946.59,1845.17 1876,1855C1931.91,1860.9 1972.93,1871.93 1976,1896C1894.37,1885.69 1822.38,1890.1 1773,1929C1866.21,1906.41 1916.52,1908.55 1942,1925C1858.91,1932.66 1778.16,1956.08 1703,2017C1751.56,1998.84 1787.95,1993.73 1796,2019C1718.48,2038.61 1655.15,2078.28 1606,2138C1688.95,2086.77 1748.47,2063.11 1765,2090L1701,2216C1658.72,2258.4 1629.1,2349.71 1607,2470C1564.2,2556.14 1504.7,2635.38 1325,2665C1153.5,2684.7 1013.21,2720.8 974,2810" style="fill:none;stroke-width:20.7px;stroke:rgb(2,226,172);"/>
                </g>
            </g>
        </g>
        <g transform="matrix(1,0,0,1,-490,889)">
            <path d="M938,2938L973,2810C888.215,2840.88 810.442,2885.18 746,2955C635.811,3164.64 633.611,3282.88 641,3393L661,3381C619.562,3568.56 643.41,3592.68 652,3655L686,3609C676.494,3716.67 688.791,3766.48 711,3790L734,3733C754.557,3804.95 755.907,3869.8 742,3929L808,3818C829.868,3853.53 831.999,3900.44 807,3963L829,4035C915.25,3912.92 899.196,3782.51 845,3649L903,3700C899.031,3608.44 880.711,3520.43 848,3436L906,3505C894.149,3446.98 883.34,3390.09 900,3363C919.879,3306.63 920.003,3256.8 917,3208L898,3099C884.566,3016.5 902.605,2967.9 938,2938Z" style="fill:none;stroke-width:5.18px;stroke:rgb(2,226,172);"/>
        </g>
        <g transform="matrix(1,0,0,1,-494,889)">
            <path d="M938,2938L973,2810C888.215,2840.88 810.442,2885.18 746,2955C635.811,3164.64 633.611,3282.88 641,3393L661,3381C619.562,3568.56 643.41,3592.68 652,3655L686,3609C676.494,3716.67 688.791,3766.48 711,3790L734,3733C754.557,3804.95 755.907,3869.8 742,3929L808,3818C829.868,3853.53 831.999,3900.44 807,3963L829,4035C915.25,3912.92 899.196,3782.51 845,3649L903,3700C899.031,3608.44 880.711,3520.43 848,3436L906,3505C894.149,3446.98 883.34,3390.09 900,3363C919.879,3306.63 920.003,3256.8 917,3208L898,3099C884.566,3016.5 902.605,2967.9 938,2938Z" style="fill:none;stroke-width:15.53px;stroke:rgb(2,226,172);"/>
        </g>
        <g transform="matrix(1.01626,0,0,0.933333,-508.886,1156.67)">
            <path d="M1100,3940L1216,3940L1223,3970C1182.64,3967.99 1143.56,3965.36 1106,3962L1100,3940Z" style="fill:none;stroke-width:15.92px;stroke:rgb(255,204,0);"/>
        </g>
        <g transform="matrix(1,0,0,1,-493,892)">
            <path d="M2325,3095L2368,2992L2388,2987L2362,3076L2325,3095Z" style="fill:none;stroke-width:15.53px;stroke:rgb(255,204,0);"/>
        </g>
        <g transform="matrix(1,0,0,1,-490,892)">
            <path d="M2643,3071L2732,3107L2735,3139L2631,3089L2643,3071Z" style="fill:none;stroke-width:15.53px;stroke:rgb(255,204,0);"/>
        </g>
        <g transform="matrix(1,0,0,1,-489,891)">
            <path d="M1458,3975L1463,4008C1535.3,4012.72 1576.57,4013.29 1604,4012L1584,3963L1458,3975Z" style="fill:none;stroke-width:15.53px;stroke:rgb(255,204,0);"/>
        </g>
    </g>
    <g transform="matrix(0.667749,-1.63551e-16,1.67243e-16,0.682821,34.4069,-696.324)">
        <path d="M1406.5,1547L1442.31,1657.21L1558.19,1657.21L1464.44,1725.33L1500.25,1835.54L1406.5,1767.42L1312.75,1835.54L1348.56,1725.33L1254.81,1657.21L1370.69,1657.21L1406.5,1547Z" style="fill:none;stroke-width:18.51px;stroke:rgb(2,226,172);"/>
    </g>
    <g transform="matrix(0.667749,-1.63551e-16,1.67243e-16,0.682821,2556.41,-307.324)">
        <path d="M1406.5,1547L1442.31,1657.21L1558.19,1657.21L1464.44,1725.33L1500.25,1835.54L1406.5,1767.42L1312.75,1835.54L1348.56,1725.33L1254.81,1657.21L1370.69,1657.21L1406.5,1547Z" style="fill:none;stroke-width:18.51px;stroke:rgb(2,226,172);"/>
    </g>
    <g transform="matrix(0.351992,-8.62132e-17,8.81592e-17,0.359937,-183.844,665.177)">
        <path d="M1406.5,1547L1442.31,1657.21L1558.19,1657.21L1464.44,1725.33L1500.25,1835.54L1406.5,1767.42L1312.75,1835.54L1348.56,1725.33L1254.81,1657.21L1370.69,1657.21L1406.5,1547Z" style="fill:none;stroke-width:35.11px;stroke:rgb(2,226,172);"/>
    </g>
    <g transform="matrix(0.667749,-1.63551e-16,1.67243e-16,0.682821,3815.41,-863.324)">
        <path d="M1406.5,1547L1442.31,1657.21L1558.19,1657.21L1464.44,1725.33L1500.25,1835.54L1406.5,1767.42L1312.75,1835.54L1348.56,1725.33L1254.81,1657.21L1370.69,1657.21L1406.5,1547Z" style="fill:none;stroke-width:18.51px;stroke:rgb(2,226,172);"/>
    </g>
    <g>
        <g transform="matrix(14.5944,0,0,14.5944,-4534.73,326.769)">
            <path d="M442,139L486,66L529,140L486,165L442,139L486,121L529,140" style="fill:none;stroke-width:0.86px;stroke:rgb(255,204,0);"/>
        </g>
        <g transform="matrix(14.5944,0,0,14.5944,-4534.73,326.769)">
            <path d="M485,209L485,173L443,148L485,209L529,148L485,173" style="fill:none;stroke-width:0.86px;stroke:rgb(255,204,0);"/>
        </g>
        <g transform="matrix(1,0,0,1,1,467)">
            <path d="M2558,1626L2559,2265" style="fill:none;stroke-width:12.5px;stroke:rgb(255,204,0);"/>
        </g>
        <g transform="matrix(1,0,0,1.24257,0,-716.413)">
            <path d="M2558,1626L2559,2265" style="fill:none;stroke-width:11.08px;stroke:rgb(255,204,0);"/>
        </g>
    </g>
    <g>
        <g transform="matrix(14.007,0,0,14.007,-4255.09,404.538)">
            <path d="M442,139L486,66L529,140L486,165L442,139L486,121L529,140" style="fill:none;stroke-width:0.89px;stroke:rgb(2,226,172);"/>
        </g>
        <g transform="matrix(14.007,0,0,14.007,-4255.09,404.538)">
            <path d="M485,209L485,173L443,148L485,209L529,148L485,173" style="fill:none;stroke-width:0.89px;stroke:rgb(2,226,172);"/>
        </g>
        <g transform="matrix(0.959751,0,0,0.959751,98.0771,539.125)">
            <path d="M2558,1626L2559,2265" style="fill:none;stroke-width:13.02px;stroke:rgb(2,226,172);"/>
        </g>
        <g transform="matrix(0.959751,0,0,1.19255,97.1174,-596.657)">
            <path d="M2558,1626L2559,2265" style="fill:none;stroke-width:11.55px;stroke:rgb(2,226,172);"/>
        </g>
    </g>
    <g>
        <g transform="matrix(14.007,0,0,14.007,-4243.09,416.538)">
            <path d="M442,139L486,66L529,140L486,165L442,139L486,121L529,140" style="fill:none;stroke-width:0.89px;stroke:rgb(111,63,245);"/>
        </g>
        <g transform="matrix(14.007,0,0,14.007,-4243.09,416.538)">
            <path d="M485,209L485,173L443,148L485,209L529,148L485,173" style="fill:none;stroke-width:0.89px;stroke:rgb(111,63,245);"/>
        </g>
        <g transform="matrix(0.959751,0,0,0.959751,110.077,551.125)">
            <path d="M2558,1626L2559,2265" style="fill:none;stroke-width:13.02px;stroke:rgb(111,63,245);"/>
        </g>
        <g transform="matrix(0.959751,0,0,1.19255,109.117,-584.657)">
            <path d="M2558,1626L2559,2265" style="fill:none;stroke-width:11.55px;stroke:rgb(111,63,245);"/>
        </g>
    </g>
    <g transform="matrix(0.911771,0,0,1,243.059,514)">
        <path d="M12,3834L4999,3882" style="fill:none;stroke-width:100.15px;stroke:rgb(2,226,172);"/>
    </g>
    <g transform="matrix(0.680369,0,0,0.746206,855.836,1718.14)">
        <path d="M12,3834L4999,3882" style="fill:none;stroke-width:134.21px;stroke:rgb(2,226,172);"/>
    </g>
    <g transform="matrix(0.405655,0,0,0.606774,1411.13,2492.07)">
        <path d="M12,3834L4999,3882" style="fill:none;stroke-width:185.69px;stroke:rgb(2,226,172);"/>
    </g>
</svg>
